<?xml version="1.0" standalone="yes"?>
<svg xmlns="http://www.w3.org/2000/svg" width="150" height="150">
<path style="fill:#a5a4a9; stroke:none;" d="M0 0L0 30C4.41661 24.4151 1.65109 19.1284 3.13966 13C4.41127 7.76483 9.034 4.78746 11 0L0 0z"/>
<path style="fill:#aeadb3; stroke:none;" d="M0 42C4.11264 37.3013 4.19684 31.798 5.52778 26C6.76869 20.5942 9.06912 15.4943 10 10C11.4785 10.9857 11.2032 11 13 11C12.4533 7.71967 13.8869 7.57738 11 7C12.6845 4.90988 14.0139 2.80452 16 1C10.5081 -1.11577 8.64069 5.02814 6.80015 9.16898C2.26457 19.3731 0 30.8565 0 42z"/>
<path style="fill:#a4a2a9; stroke:none;" d="M16 0C13.8809 2.1313 12.5512 4.43575 11 7C12.1712 8.32675 12.4904 9.26099 13 11C15.531 7.83995 16.9576 4.00119 16 0z"/>
<path style="fill:#787b84; stroke:none;" d="M17 0C16.7365 4.8689 14.21 8.40419 13 13C16.9739 9.599 19.4214 4.96127 21 0L17 0z"/>
<path style="fill:#a8a6ab; stroke:none;" d="M14 16C12.8572 13.4212 12.2755 11.661 10 10C7.97801 17.6235 6.29253 25.4813 4.12037 33C2.1419 39.8483 0.000803612 44.7193 0 52C2.05063 47.4732 3.74137 41.9855 4 37L6 38C8.01732 31.948 8.79692 27.2539 13 22L14 23L14 19L18 18C17.1243 11.6477 20.9093 6.75377 23 1C24.0226 2.53392 23.8046 2.40228 25 3C25.5451 1.36484 25.3648 1.54504 27 1C19.0568 -2.21605 15.6621 10.2679 14 16z"/>
<path style="fill:#9699a0; stroke:none;" d="M23 1C20.879 6.51123 17.6055 10.9584 17 17L21 15C21 13.2032 20.9857 13.4785 20 12L23 12C24.1682 7.79845 27.3783 5.01414 29 1C28.7406 4.87184 26.7698 8.02017 27 12C29.444 9.56863 30.9141 7.27255 32 4L35 5L38 0C34.8057 0 31.122 -0.512024 28 0.166672C25.4797 0.714554 25.1633 2.59404 23 1z"/>
<path style="fill:#afaeb3; stroke:none;" d="M29 15C25.9123 15.9517 24.354 17.8466 22 20C23.2278 16.9888 24.4294 14.2079 25 11C20.3487 16.2096 20.5468 23.8422 16 29C16 30.7968 16.0143 30.5215 17 32C14.3354 34.0774 13.3325 37.4992 11 40C10.8737 43.9818 9.29758 47.3734 13 50C13.8448 47.3046 14.6569 44.8061 15 42C17.672 41.1342 19.5232 39.295 22 38C18.7325 46.9492 17.2131 53.1607 10 60C12.6885 61.4484 14.9804 61.2451 18 61C20.4646 49.0415 29.0256 41.7024 34 31L34 35C42.5092 27.0902 40.4704 13.4788 50 6C48.937 9.40594 48.1037 12.415 48 16C51.83 11.3768 53.3115 5.31821 56 0C44.9945 0 29.3628 -0.288391 29 15z"/>
<path style="fill:#b9babc; stroke:none;" d="M49 16C48.1536 12.3529 49.2617 9.60509 50 6C42.8554 9.71204 41.9463 18.329 39.706 25.2461C38.6062 28.6418 36.7818 31.4425 36 35C40.3421 34.2725 44.8282 34.6542 49 32.9761C56.4121 29.9945 62.8492 24.5375 70 21C70.3486 27.8315 66.4708 30.4129 60 31C59.8488 33.587 58.9748 35.5965 58 38L61 39L64 36C65.039 39.2778 66.1204 42.5068 65.8812 46C65.3164 54.2456 61.4857 59.6664 65 68C66.1954 67.4023 65.9774 67.5339 67 66C67.7679 67.3142 67.6858 67.2321 69 68L68 66L71 67C72.2228 65.8048 72.42 65.6836 74 65C75.1525 67.6563 77.0174 70.1605 77.6875 73C78.8028 77.7256 77.0425 81.4732 76.5633 86.0147C76.2085 89.3763 76.5771 91.9062 75 95C76.0721 96.6519 77.1554 97.9858 77.3318 100.025C77.5516 102.565 75.8378 105.156 77.233 107.581C83.8228 119.034 97.762 101.7 104 100C101.716 87.6967 105.766 72.5202 101 61L97 65L96 61C94.1468 61 94.6498 60.7003 94 62C94.5283 60.1288 95.1209 58.7557 96 57C90.9025 55.4525 91.0169 51.7829 91 47L88 47C88.4264 44.5309 89.1324 42.3547 90 40C86.9882 37.7342 88.6705 33.5727 88 30C79.6253 35.1584 76.4658 44.0826 71 52C69.8137 50.9644 69.3964 50.6613 68 50C74.1362 38.5374 79.0088 29.2451 78 16C85.6807 14.6796 84.5646 6.02638 86 0L65 0C61.9235 0.00138855 57.9564 -0.551956 55.4298 1.60339C52.0773 4.46327 50.1932 11.8566 49 16z"/>
<path style="fill:#b2b6b7; stroke:none;" d="M78 16C78.4486 28.9426 74.0169 37.7603 68 49L70 52C75.7884 48.3592 76.7467 42.8077 80.1883 37.429C82.2269 34.2429 85.1526 32.3411 88 30C88.508 33.778 85.5519 39.0419 90 40C88.8182 42.4297 88.2695 44.3127 88 47L91 47C91.0019 50.486 91.0096 53.65 92 57L94 57C96.9949 53.394 100.959 51.8262 102 47C104.489 46.7451 105.958 46.416 108 45C106.521 44.0143 106.797 44 105 44C107.603 39.1091 110.089 31.6792 115 29C115.803 21.6595 121.381 17.6035 125.316 11.8341C127.703 8.33304 128.899 4.03864 130 0L100 0C96.3481 0 90.6744 -1.04807 87.3179 0.603394C84.5742 1.95337 85.1758 5.49423 84.6103 8C83.7081 11.9981 81.8788 14.787 78 16z"/>
<path style="fill:#9ba0a4; stroke:none;" d="M115 29C109.848 30.6919 106.79 39.1112 105 44L109 45C110.005 41.3164 110.67 39.0354 114 37C114 33.7333 116.405 28.3035 120 31C122.699 25.5736 125.918 19.276 129.315 14.2894C132.328 9.86665 136.356 5.09286 138 0C135.698 0.00813293 132.562 -0.427139 130.585 1.02393C128.068 2.87053 127.442 7.39378 125.89 10C121.925 16.6568 115.453 20.6868 115 29z"/>
<path style="fill:#899194; stroke:none;" d="M138 0C135.239 5.33035 130.997 9.8815 128.074 15.081C126.409 18.0426 125.534 21.1185 123.574 24.0039C118.835 30.9822 113.557 37.2605 113 46C122.801 35.5261 129.145 23.6383 136.713 11.2855C139.087 7.41061 141.952 4.10909 144 0L138 0z"/>
<path style="fill:#9ea3a6; stroke:none;" d="M142 7C145.431 5.77103 146.242 3.45197 147 0C143.118 1.17763 142.301 3.04813 142 7z"/>
<path style="fill:#a7abae; stroke:none;" d="M147 0L145 7L141 5C134.293 12.624 126.818 24.2418 124 34C125.479 34.9857 125.203 35 127 35C122.149 45.2091 114.655 54.8651 108 64C113.203 68.962 112.523 73.3207 112 80C116.013 78.831 117.894 73.5448 119.866 70C124.648 61.4037 127.357 51.8716 131.565 43.0602C132.998 40.0584 135.215 38.3086 136 35L140 35L137 41L150 37L150 0L147 0z"/>
<path style="fill:#b9bcc3; stroke:none;" d="M29 1C28.1055 3.04169 27.4637 4.82774 27 7C28.7769 4.94965 29.6395 3.6599 29 1z"/>
<path style="fill:#8e8d98; stroke:none;" d="M16 2L16 6C16.7102 4.24049 16.7102 3.75949 16 2z"/>
<path style="fill:#6f727b; stroke:none;" d="M21.3333 4.66667C21.2778 4.72223 21.2222 5.77777 21.6667 5.33333C21.7222 5.27777 21.7778 4.22223 21.3333 4.66667z"/>
<path style="fill:#82868c; stroke:none;" d="M32 4L31 8C32.6076 6.55022 33.0643 5.94853 34 4L32 4z"/>
<path style="fill:#8f8e93; stroke:none;" d="M6 5C4.46994 8.68092 2.70339 12.0541 2 16C6.09738 15.1264 7.64673 8.73116 9 5L6 5z"/>
<path style="fill:#afadb2; stroke:none;" d="M23 12C21.085 10.7233 21.915 10.7233 20 12L21 15L14 19L14 23C8.69346 20.8774 7.25619 34.2397 5 38L4 37L1.40818 46.9853L1 59C3.5124 57.4297 6.1655 57.8951 9 57C5.23483 69.1353 0.00143934 78.9596 0 92C4.21387 85.5728 6.46301 76.9953 9.94444 70C11.9047 66.0613 14.2325 62.8 10 60C18.0699 54.4278 19.6358 46.9322 22 38C19.328 38.8658 17.4768 40.705 15 42L13 50C10.1118 46.8049 11.1611 44.0213 11 40C13.8641 37.9653 14.7582 34.6378 17 32L16 29C19.6289 26.2747 20.0977 21.074 21.7569 17C23.3121 13.1818 25.9537 9.98523 27 6C24.1504 7.55644 23.4969 8.79292 23 12z"/>
<path style="fill:#8b8c91; stroke:none;" d="M30 8C27.8496 10.6381 25.262 12.9783 29 15C29.2017 12.5549 30.2738 10.3963 30 8z"/>
<path style="fill:#c2c2ca; stroke:none;" d="M25.3333 9.66667C25.2778 9.72224 25.2222 10.7777 25.6667 10.3333C25.7222 10.2778 25.7778 9.22221 25.3333 9.66667z"/>
<path style="fill:#797a7f; stroke:none;" d="M26 10C25.3854 12.4615 25.105 13.3177 27 15C26.815 13.17 26.6339 11.6969 26 10z"/>
<path style="fill:#8f8d99; stroke:none;" d="M14 12C12.634 13.9156 12.6485 13.7116 13 16C14.303 14.3324 14.553 14.0078 14 12z"/>
<path style="fill:#8c8b90; stroke:none;" d="M24 14L22 20C24.5498 18.2945 25.4233 16.7892 24 14z"/>
<path style="fill:#9a9599; stroke:none;" d="M68 21L70 27C70.8084 24.2785 70.2504 22.7076 68 21z"/>
<path style="fill:#74646b; stroke:none;" d="M65 23C65.7854 25.3336 65.6129 26.5992 65 29C70.3209 28.7532 70.1219 23.2626 65 23z"/>
<path style="fill:#494346; stroke:none;" d="M67.6667 22.3333C67.2222 22.7778 68.2778 22.7222 68.3333 22.6667C68.7778 22.2222 67.7222 22.2778 67.6667 22.3333z"/>
<path style="fill:#66565d; stroke:none;" d="M36 43C47.6484 41.9509 56.2494 32.9152 67 30C66.4023 28.8046 66.5339 29.0226 65 28C66.0811 26.542 66.436 25.752 67 24C59.0208 25.3792 52.9147 30.8083 46 34.6528C41.7272 37.0284 37.5437 37.9954 36 43z"/>
<path style="fill:#a7acb3; stroke:none;" d="M118 29C115.368 31.5701 113.864 33.2893 114 37C110.151 38.5423 109.771 41.1291 109 45L112 44C112.123 47.7136 112.424 49.5633 116 51L117 47C114.573 47 115.241 45.5849 113 46C113.671 40.5239 119.081 34.0676 118 29z"/>
<path style="fill:#babbbd; stroke:none;" d="M34 31C28.142 39.956 21.5368 47.3745 19.3356 58.0008C18.401 62.5129 16.6706 67.2309 22 69C19.2031 70.7298 17.9362 71.8422 17 75C18.7295 74.1193 18.8887 73.7425 20 72C20.9857 73.4785 21 73.2032 21 75C29.7005 73.5653 35.3904 79.4354 43 73C42.3164 74.58 42.1952 74.7772 41 76C40.4614 81.4834 36.9146 81.9419 32 82C34.2005 88.2537 45.7254 86.2558 51 85C50.9593 83.7371 51.6793 82.1555 51.5 81C51.191 79.0088 48.5633 78.0904 48.5 76C48.4042 72.8383 51.255 72.6912 53 74C53.7523 70.4782 53.1822 68.3385 52 65L48 69C49.0229 66.1839 51.1493 63.1923 51.3472 60.1698C51.5978 56.3438 50.0031 52.015 50 48C46.4906 46.4003 43.9158 43.9711 40.0201 43.2708C38.9262 43.0742 36.9538 43.1412 36.6312 41.6968C35.7981 37.9675 45.5974 35.2273 48 34C43.9598 33.1004 38.029 33.8412 34 35C34.3086 33.2418 34.4065 32.6593 34 31z"/>
<path style="fill:#bababc; stroke:none;" d="M59 32C55.3772 37.799 50.0233 36.0606 45.3372 40.0015C41.1395 43.5317 46.8196 47.0986 50 48C50.0004 51.9357 51.2395 56.3694 50.8966 60.1698C50.6252 63.1779 48.6778 66.0348 48 69C50.0347 67.7741 50.3265 67.2974 51 65C55.1677 72.3913 50.7117 77.4935 51 85C45.2975 86.058 35.3517 87.6784 32 82C36.9601 81.9825 41.525 82.0638 41 76C42.7833 75.0198 42.5943 75.0924 43 73C40.8443 74.3224 38.6148 76.5685 36 76.8611C33.2505 77.1688 30.6558 74.9201 28 74.3889C24.6271 73.7143 22.6071 74.4656 20 72L17 75C18.3241 72.3134 19.3134 71.3241 22 70L18 66C15.1079 69.9465 14.054 74.1503 14 79C15.2997 78.3502 15 78.8532 15 77C17.0264 80.4166 17.7172 85.8708 20.4367 88.5702C23.3426 91.4546 27.2828 90.6906 30.9606 91.1289C37.332 91.8881 46.4859 96.2638 50.8603 88.9414C53.8391 83.9553 54.3181 76.64 55.1312 71C56.6411 60.5261 57.8807 49.0822 61 39C59.5215 38.0143 59.7968 38 58 38L61 32L59 32z"/>
<path style="fill:#b8b9bb; stroke:none;" d="M116 51C112.932 49.1214 112.272 47.564 112 44L102 47C100.489 51.1587 97.612 52.667 94 55C94.6614 56.3964 94.9644 56.8137 96 58C94.3924 59.4498 93.9357 60.0514 93 62L96 61L97 65L101 61C102.902 62.1561 103.722 62.1565 106 62C106.006 71.3676 107.565 80.6535 108.039 90C108.19 92.98 108.392 97.9041 112.144 98.5077C119.747 99.7313 122.935 88.6962 114 88L115 82C109.937 76.4789 115.22 68.8873 108 64C115.201 56.8155 123.916 44.6602 127 35C120.264 35.3067 117.606 45.3826 116 51z"/>
<path style="fill:#4d424b; stroke:none;" d="M56.3333 35.6667C56.2778 35.7222 56.2222 36.7778 56.6667 36.3333C56.7222 36.2778 56.7778 35.2222 56.3333 35.6667z"/>
<path style="fill:#aaaeb1; stroke:none;" d="M136 35C131.257 45.2663 126.132 55.5964 121.332 66.0008C119.203 70.6142 116.382 77.3506 112 80C113.139 81.0154 113.612 81.3087 115 82L114 88C118.504 88.3431 124.562 89.5893 128.657 86.9761C130.777 85.6228 131.614 83.1572 132.836 81.0887C136.502 74.8827 139.533 69.1395 141 62L144 63C144.372 58.0734 147.675 56.2831 149.231 51.946C150.851 47.4334 150 41.7279 150 37C145.445 37.6823 141.343 39.5308 137 41C138.573 38.8852 139.352 37.5303 140 35L136 35z"/>
<path style="fill:#928790; stroke:none;" d="M41.6667 36.3333C41.2222 36.7778 42.2778 36.7222 42.3333 36.6667C42.7777 36.2223 41.7222 36.2778 41.6667 36.3333z"/>
<path style="fill:#5d5059; stroke:none;" d="M63 36C61.8431 37.8167 61.8547 37.8347 62 40C59.5238 42.1319 59.664 44.8602 60 48C62.0385 44.2065 64.7283 40.2717 63 36z"/>
<path style="fill:#82777f; stroke:none;" d="M50.6667 37.3333C50.2222 37.7778 51.2778 37.7222 51.3333 37.6667C51.7778 37.2222 50.7222 37.2778 50.6667 37.3333z"/>
<path style="fill:#aaa1a6; stroke:none;" d="M64 37L65 50C66.7257 45.8875 66.2851 40.8147 64 37z"/>
<path style="fill:#99a1a4; stroke:none;" d="M115 48C118.895 45.4973 120.472 41.2694 122 37C116.17 37.9615 115.155 42.6731 115 48z"/>
<path style="fill:#8b8088; stroke:none;" d="M38 38L39 39L38 38z"/>
<path style="fill:#968690; stroke:none;" d="M61.3333 38.6667C61.2778 38.7222 61.2222 39.7778 61.6667 39.3333C61.7223 39.2777 61.7778 38.2222 61.3333 38.6667z"/>
<path style="fill:#948a92; stroke:none;" d="M36 39L37 40L36 39z"/>
<path style="fill:#9f989f; stroke:none;" d="M35 40L35 43C35.6961 41.4463 35.6961 41.5537 35 40z"/>
<path style="fill:#a796a0; stroke:none;" d="M40 42C41.2484 42.6848 41.5484 42.7488 43 43C41.7517 42.3152 41.4516 42.2512 40 42z"/>
<path style="fill:#897c85; stroke:none;" d="M63 42C62.4711 46.3315 61.8523 54.7609 57 56C57.8173 59.7946 61.1577 58.9392 63.0833 55.9167C65.5787 51.9999 63.8073 46.4352 65 42L63 42z"/>
<path style="fill:#8e848c; stroke:none;" d="M36 43C37.2483 43.6848 37.5484 43.7488 39 44C37.7517 43.3152 37.4516 43.2512 36 43z"/>
<path style="fill:#999299; stroke:none;" d="M59 43L59 46C59.6961 44.4463 59.6961 44.5537 59 43z"/>
<path style="fill:#6e5e69; stroke:none;" d="M61 43L58 57C61.5224 53.2873 62.3304 47.9725 63 43L61 43z"/>
<path style="fill:#7c727a; stroke:none;" d="M64 43L64 51C65.1614 48.2301 65.1614 45.7699 64 43z"/>
<path style="fill:#8d7f89; stroke:none;" d="M58 51L58 55C58.7102 53.2405 58.7102 52.7595 58 51z"/>
<path style="fill:#6e6d73; stroke:none;" d="M0 52L0 55C0.696103 53.4463 0.696101 53.5537 0 52z"/>
<path style="fill:#9b9aa0; stroke:none;" d="M1 52L1 55L3 55L3 52L1 52z"/>
<path style="fill:#abaaaf; stroke:none;" d="M149 52C146.445 55.9743 144.162 58.0576 144 63C142.521 62.0143 142.797 62 141 62C138.549 69.836 135.322 79.6512 129.432 85.6821C127.17 87.9989 123.967 87.345 121.589 89.1782C119.32 90.9268 119.566 94.4295 117.486 96.436C113.968 99.8303 110.351 99.0434 108 104C114.479 104.759 109.42 111.12 107.096 114.17C100.504 122.824 89.2239 133.731 88 145C90.771 142.369 91.8925 139.629 93 136L96 137L98 130C105.938 130.254 114.171 118.735 117 112C115.629 109.644 115.859 107.743 116 105C118.124 105.899 118.101 105.876 119 108C123.144 105.918 123.548 102.477 126.566 99.3148C128.302 97.4959 130.718 96.8538 133 96C132.232 94.6859 132.314 94.7679 131 94C132.053 90.7037 133.003 84.3467 137 88C138.393 85.689 138.765 83.6914 139 81L144 81C141.411 84.7422 139.425 87.3593 139 92C141.452 90.3884 142.151 88.8066 143 86C144.023 87.5339 143.805 87.4023 145 88C143.747 90.0166 143.689 90.6228 144 93C150.11 84.3077 150 75.1854 150 65C150 60.7396 150.661 55.9586 149 52z"/>
<path style="fill:#a0a3aa; stroke:none;" d="M0 55L0 69C3.55732 65.8555 3.58062 62.2994 5 58C2.88382 57.7193 3.0625 57.3998 2 59L0 55z"/>
<path style="fill:#b9b9bb; stroke:none;" d="M19 56C18.4382 57.8006 18.1759 59.1218 18 61C13.1968 61.7818 11.9083 64.813 9.93133 69C6.4384 76.3977 3.05369 83.8407 2 92L7 92C5.47133 96.4234 4.94315 101.391 4 106C8.59375 105.21 9.54795 102.369 10 98L13 98L11 104C12.6615 103.387 13.4833 102.957 15 102C16.1053 104.813 17.8372 105.975 20 108L22 108C24.5599 106.058 26.8078 106.035 30 106C28.1817 107.94 26.1452 109.418 24 111C30.3292 113.68 36.9252 112.397 40 106C40.351 115.009 30.812 123.788 29 133C37.0845 127.088 36.0571 112.391 48 112L47 118C49.2765 114.81 49.504 111.137 53 109C54.0014 104.505 54.7474 100.639 55 96C57.1107 96.1841 58.9053 96.2382 61 96C60.2901 101.452 57.7202 106.423 57 112C63.2048 107.299 63.5783 95.9315 66 89C67.4785 89.9857 67.2032 90 69 90C68.0629 93.4665 67.6606 95.6453 69 99C67.2032 99 67.4785 99.0143 66 100L67 106C63.4791 108.308 62.3233 112.114 61 116C63.1236 116.899 63.1007 116.876 64 119L70 113C67.877 118.514 68.4893 123.534 67.0077 129C65.5134 134.514 62.7798 139.238 62 145L71 137C71.5162 123.322 89.0003 116.278 100 112C100.98 113.783 100.908 113.594 103 114L103 111C104.58 111.684 104.777 111.805 106 113C111.791 110.812 114.552 101.998 106 105L105 102C98.2853 105.249 93.8249 112.56 86.9961 115.552C83.0559 117.279 78.1739 116.034 74 116C75.3726 113.453 76.2183 112.812 79 112C76.7072 110.931 73.4086 110.508 72.3526 107.852C70.5705 103.369 75.2116 99.0632 69 97C70.6966 89.0686 77.004 71.2646 68 66L69 68C66.2658 66.3595 67.1389 65.3263 65 68C63.9163 64.3157 63.4477 60.8016 63 57C55.6629 60.4899 58.2477 66.408 59 73C60.2272 75.8058 58.8684 78.0818 58 81L60 81C59.4138 83.1463 57.4825 94.147 55 92C49.2961 102.502 39.1016 100.737 29 98.6659C26.4141 98.1356 23.5193 98.3225 21.0394 97.402C18.0583 96.2955 16.0932 93.9307 13 93C13.3026 90.7058 13.5785 89.7885 15 88L14 83L18 84L19 83L16 77C14.7003 77.6498 15 77.1468 15 79C12.8661 71.0642 20.8279 64.0013 19 56z"/>
<path style="fill:#95959d; stroke:none;" d="M5 57L6 63C7.88424 61.0197 8.46928 59.6904 9 57L5 57z"/>
<path style="fill:#7e7d86; stroke:none;" d="M4 59C3.91583 61.5489 4.33163 63.5304 5 66C5.98453 63.6684 5.98125 61.5433 6 59L4 59z"/>
<path style="fill:#716b73; stroke:none;" d="M57 59C56.533 62.6955 56.0309 66.2648 56 70C58.2391 66.8308 58.4797 62.5934 57 59z"/>
<path style="fill:#63565f; stroke:none;" d="M103 62C103 68.0321 103.405 74.0993 102 80C105.609 76.8461 104.761 66.1977 103 62z"/>
<path style="fill:#847280; stroke:none;" d="M104 62C104 72.3711 103.547 82.6574 103.71 93C103.745 95.2439 103.65 102.361 107.726 101.168C111.076 100.188 108.612 94.194 108.3 92C106.887 82.0538 106 72.067 106 62L104 62z"/>
<path style="fill:#6f6f77; stroke:none;" d="M4 63L3 68C4.87932 66.3768 4.91572 65.3005 4 63z"/>
<path style="fill:#958992; stroke:none;" d="M102.333 63.6667C102.278 63.7222 102.222 64.7778 102.667 64.3333C102.722 64.2778 102.778 63.2222 102.333 63.6667z"/>
<path style="fill:#786670; stroke:none;" d="M71 65L72 71C73.3963 70.3387 73.8137 70.0356 75 69C75.7243 72.0395 75.9738 74.8783 76 78C78.3121 72.4878 76.2776 67.5437 71 65z"/>
<path style="fill:#958790; stroke:none;" d="M73 65L74 66L73 65z"/>
<path style="fill:#82828a; stroke:none;" d="M2 67C1.56428 69.6074 1.43708 71.4294 2 74C4.1595 71.2626 4.93111 69.2744 2 67z"/>
<path style="fill:#92959c; stroke:none;" d="M1 68C-0.347302 72.5581 0 77.2699 0 82L3 75L1 68z"/>
<path style="fill:#9f959e; stroke:none;" d="M55 68C55.0941 70.2049 55.3562 71.8941 56 74L59 69C56.9622 69.1798 56.5518 69.1639 55 68z"/>
<path style="fill:#83777f; stroke:none;" d="M102 68L102 74C102.951 71.7148 102.951 70.2853 102 68z"/>
<path style="fill:#81707a; stroke:none;" d="M74 69C72.5347 71.3611 71.5441 73.2725 71 76L75 77C74.0143 78.4785 74 78.2032 74 80C77.1616 77.2373 76.3532 72.1061 74 69z"/>
<path style="fill:#7c6b76; stroke:none;" d="M58 70L57 74C53.1335 74.5341 52.983 81.5335 52 85L54 85C51.8077 87.9912 50.7287 89.4369 52 93C53.8229 92.2547 55.0235 92.0463 57 92C58.4221 88.6305 58.9226 85.6495 59 82C58.317 83.506 58.1741 84.3148 58 86C55.9809 84.8495 55.2766 83.9852 54 82C58.643 79.393 59.8201 74.9867 58 70z"/>
<path style="fill:#91868f; stroke:none;" d="M59.3333 70.6667C59.2778 70.7222 59.2222 71.7778 59.6667 71.3333C59.7222 71.2778 59.7778 70.2222 59.3333 70.6667z"/>
<path style="fill:#a0969e; stroke:none;" d="M77 70L77 78C78.1614 75.2301 78.1614 72.7699 77 70z"/>
<path style="fill:#9c929a; stroke:none;" d="M106 71L106 78C107.059 75.4657 107.059 73.5343 106 71z"/>
<path style="fill:#afb0b2; stroke:none;" d="M51 72C48.0186 75.2555 48.2782 77.5736 52 80C52.8806 76.7785 52.897 74.788 51 72z"/>
<path style="fill:#8c878a; stroke:none;" d="M58 73L58 77C60.0347 75.7741 60.3265 75.2974 61 73L58 73z"/>
<path style="fill:#655962; stroke:none;" d="M72.3333 73.6667C72.2778 73.7222 72.2222 74.7778 72.6667 74.3333C72.7222 74.2778 72.7778 73.2222 72.3333 73.6667z"/>
<path style="fill:#938991; stroke:none;" d="M73 77C72.1525 80.7078 71.1745 84.1813 71 88C73.3581 87.3409 74.2432 86.7334 76 85C74.8812 82.2499 74.8022 79.9536 75 77L73 77z"/>
<path style="fill:#aeaab0; stroke:none;" d="M76 78L75 81L78 83C78.2021 81.1501 78.2021 79.8499 78 78L76 78z"/>
<path style="fill:#998c96; stroke:none;" d="M54 82C55.0173 84.4814 55.4385 85.2644 58 86C58 82.7394 57.8566 82.4641 60 83C58.1191 80.5164 56.8156 80.911 54 82z"/>
<path style="fill:#867a84; stroke:none;" d="M75 81L74 82L74 84C76.364 83.5175 76.5175 83.364 77 81L75 81z"/>
<path style="fill:#b1b0b5; stroke:none;" d="M139 81C138.622 83.5507 138.012 85.627 137 88C136.014 86.5215 136 86.7968 136 85C132.596 87.0748 131.877 90.2229 131 94C133.904 93.8995 134.565 93.5236 136 91C136.562 92.8006 136.824 94.1218 137 96L141 96C140.819 98.4234 140.944 98.7575 142 101C140.203 101 140.479 101.014 139 102C139.569 108.517 132.415 113.913 130 120C133.477 118.857 138.512 114.719 140.7 111.701C143.43 107.935 144.234 104.429 149 103L148 116C142.986 117.801 137.41 126.785 137 132L133 132C131.877 136.252 130.448 138.293 126 139L127 133C123.586 135.584 121.106 141.888 120 146C123.789 146.447 128.972 147.465 132.316 144.987C134.883 143.085 136.356 139.993 139 138L137 147L141 146C141.421 143.157 141.939 141.988 144 140L143 147C151.683 144.211 150 136.738 150 129L150 82C147.079 85.1746 145.783 88.7945 145 93C144.375 90.9238 144.241 90.9132 145 89L144 86L139 92C139.7 87.629 142.163 84.8747 144 81L139 81z"/>
<path style="fill:#a19c9f; stroke:none;" d="M14 86L18 86C16.7218 83.1016 14.7502 82.5169 14 86z"/>
<path style="fill:#6c636b; stroke:none;" d="M103 83L103 88C103.83 85.9695 103.83 85.0305 103 83z"/>
<path style="fill:#b8b9b3; stroke:none;" d="M2 85C-2.31254 105.905 0 128.679 0 150C6.16058 149.979 10.9413 146.898 16.804 146.29C19.3532 146.026 21.9746 147.555 24.081 145.392C28.3836 140.974 28 133.615 28 128C21.7979 130.014 18.3611 136.582 12 139C12.5451 137.365 12.3648 137.545 14 137C13.8148 130.81 16.0894 126.899 22 125C20.4494 118.978 18.6489 114.906 12 114C9.65092 120.467 7.25843 127.561 3 133C1.31592 124.49 0.390518 111.666 2.45602 103.17C3.40088 99.2831 5.55038 95.6982 7 92L2 92C2.46655 89.4149 2.88822 87.4599 2 85z"/>
<path style="fill:#675a61; stroke:none;" d="M16 85C15.0143 86.4785 15 86.2032 15 88C18.5612 88.8925 21.2999 91.2567 25 92C22.1792 89.4573 19.1388 87.1385 16 85z"/>
<path style="fill:#68545f; stroke:none;" d="M52 85L52 88C53.0154 86.8607 53.3087 86.3884 54 85L52 85z"/>
<path style="fill:#aaa3aa; stroke:none;" d="M75 85L76 89C76.553 86.9922 76.303 86.6676 75 85z"/>
<path style="fill:#988d93; stroke:none;" d="M18 86L19 87L18 86z"/>
<path style="fill:#7d636e; stroke:none;" d="M16 87C14.7707 94.6746 19.1579 97.0951 26 98.2469C34.352 99.6529 42.5675 98.4909 51 99C49.7516 98.3152 49.4516 98.2512 48 98C49.965 96.0668 50.9678 94.5556 52 92C50.5215 91.0143 50.7968 91 49 91L45 97C41.2396 95.219 37.0983 93.7676 33 93L35 92C31.0473 90.3414 27.0335 91.9754 23.0015 90.9769C20.4208 90.3377 18.193 88.4187 16 87z"/>
<path style="fill:#8c7a88; stroke:none;" d="M69 97C74.4294 100.024 70.9417 104.922 72 110C72.683 108.494 72.8259 107.685 73 106C74.5167 106.957 75.3385 107.387 77 108C76.816 102.405 78.3295 99.0503 75 94C77.0232 91.9773 76.3873 89.7587 76 87C70.9793 88.7628 69.7002 91.9364 69 97z"/>
<path style="fill:#9a8d97; stroke:none;" d="M13 88L13 93L16 91C14.9988 89.0762 14.9225 88.9015 13 88z"/>
<path style="fill:#595057; stroke:none;" d="M103 88L103 92C103.71 90.2405 103.71 89.7595 103 88z"/>
<path style="fill:#a9aaaf; stroke:none;" d="M66 89C62.6521 96.2848 62.4906 105.716 57 112C58.0467 106.606 60.6363 101.419 61 96L55 96L53 109C48.9621 110.181 48.7586 114.222 48 118C47.6096 115.779 47.6646 114.246 48 112C39.7888 112.098 38.4885 117.281 35.1211 123.831C30.8086 132.219 27.2069 140.287 27 150L31 150C32.2726 142.834 36.1208 134.398 41 129L41 133C45.7264 130.725 49.5847 128.035 55 129C56.9348 128.381 58.8787 128.881 60.8349 128.301C63.3862 127.545 65.6432 125.248 68 124C67.6474 120.007 68.9625 116.812 70 113C67.2043 114.535 66.1741 116.034 65 119C63.6611 116.934 63.3652 116.475 61 116C62.7324 112.345 64.1033 108.868 67 106L66 100L69 99C67.916 95.7247 68.3328 93.3457 69 90L66 89z"/>
<path style="fill:#827b82; stroke:none;" d="M14 91L14 93L16 93L16 91L14 91z"/>
<path style="fill:#5a4f57; stroke:none;" d="M53 91C51.7005 93.7633 50.4469 95.1641 48 97C52.4159 98.4037 53.829 94.6914 55 91L53 91z"/>
<path style="fill:#6c6169; stroke:none;" d="M76.3333 91.6667C76.2778 91.7222 76.2222 92.7778 76.6667 92.3333C76.7222 92.2778 76.7778 91.2222 76.3333 91.6667z"/>
<path style="fill:#b3b1b6; stroke:none;" d="M136 91C133.13 95.0538 129.391 100.631 125 103C125.012 105.519 124.696 107.582 124 110C126.33 109.685 127.918 109.098 130 108C126.523 113.497 123.081 116.037 123 123C120.908 123.406 120.98 123.217 120 125C118.521 124.014 118.797 124 117 124L118 128C115.62 129.666 115.318 131.123 115 134L112 134C110.954 138.613 108.119 142.438 107 147C110.383 146.981 115.555 147.743 118.544 145.922C123.072 143.163 123.72 136.75 127 133L126 139C130.829 138.625 132.248 136.678 133 132L137 132C137.832 126.767 143.449 118.693 148 116C148.553 111.623 148.997 107.422 149 103C143.592 103.891 143.167 107.798 140.13 111.701C137.845 114.638 133.24 118.259 130 120C133.058 114.5 140.426 108.402 139 102L142 101C141.445 99.1958 141.166 97.8728 141 96L137 96C136.912 94.0359 136.779 92.7691 136 91z"/>
<path style="fill:#51414b; stroke:none;" d="M33.6667 92.3333C33.2222 92.7778 34.2778 92.7222 34.3333 92.6667C34.7778 92.2222 33.7222 92.2778 33.6667 92.3333z"/>
<path style="fill:#888188; stroke:none;" d="M55 92L55 94C56.6352 93.4549 56.4549 93.6352 57 92L55 92z"/>
<path style="fill:#856c79; stroke:none;" d="M36 93C38.4526 95.1072 41.1739 95.5984 44 97C45.7525 95.6697 46.6697 94.7525 48 93C43.9105 93.2889 40.0895 93.2889 36 93z"/>
<path style="fill:#6e616a; stroke:none;" d="M40 93C41.506 93.683 42.3148 93.8259 44 94C42.494 93.317 41.6852 93.1741 40 93z"/>
<path style="fill:#bfb2bb; stroke:none;" d="M51 93L51 95C52.6352 94.4549 52.4549 94.6352 53 93L51 93z"/>
<path style="fill:#948a91; stroke:none;" d="M103 93L103 98C103.83 95.9695 103.83 95.0305 103 93z"/>
<path style="fill:#b9bab5; stroke:none;" d="M4 96C2.51309 107.678 -0.325539 121.258 3 133C7.71253 128.76 10.5979 120.131 12 114C18.4547 115.523 19.6409 119.425 22 125C20.3871 125.297 17.6473 125.41 16.3333 126.5C13.5327 128.824 13.0362 135.776 12 139C18.9324 137.188 21.9778 131.172 28 128L28 136C30.0982 132.681 29.8345 128.654 31.5617 125.09C34.6562 118.703 39.9532 113.207 41 106C35.0445 111.419 31.8433 112.016 24 112C26.1819 110.09 28.5687 108.492 30 106C26.9059 106.01 24.104 105.591 22 108L20 108L15 102L11 104C12.0978 101.918 12.6845 100.33 13 98L10 98C9.25485 102.099 8.10678 104.715 4 106C5.063 102.594 5.89631 99.585 6 96L4 96z"/>
<path style="fill:#9b949b; stroke:none;" d="M53 96L54 97L53 96z"/>
<path style="fill:#8d8087; stroke:none;" d="M19 97C20.2484 97.6848 20.5484 97.7488 22 98C20.7516 97.3152 20.4516 97.2512 19 97z"/>
<path style="fill:#b1afb4; stroke:none;" d="M119 108C118.518 105.636 118.364 105.482 116 105C115.674 107.79 114.903 110.011 117 112C109.021 124.985 94.1505 133.168 94 150L111 150L111 147L107 147C108.714 142.545 111.372 138.823 112 134L115 134C115.531 131.31 116.116 129.98 118 128L117 124L120 125C121.223 123.805 121.42 123.684 123 123C123.213 116.307 127.527 113.654 130 108L124 110C124.545 108.365 124.365 108.545 126 108L125 103C128.175 101.946 129.195 100.197 130 97C124.565 98.6774 123.402 104.658 119 108z"/>
<path style="fill:#6c5b62; stroke:none;" d="M35 99C38.8154 101.89 42.8889 100.978 47 99C43.203 97.5204 38.9709 98.5701 35 99z"/>
<path style="fill:#a19299; stroke:none;" d="M32.6667 99.3333C32.2222 99.7778 33.2778 99.7222 33.3333 99.6667C33.7778 99.2222 32.7222 99.2778 32.6667 99.3333z"/>
<path style="fill:#9e9ca1; stroke:none;" d="M102 99C100.328 102.33 98.36 103.473 95 105L94 110C98.2714 108.08 101.236 104.703 105 102C103.897 100.543 103.457 100.103 102 99z"/>
<path style="fill:#868489; stroke:none;" d="M101 100L97 103C99.5435 103.55 101.079 102.687 101 100z"/>
<path style="fill:#60565e; stroke:none;" d="M105 101L106 105C107.457 103.897 107.897 103.457 109 102L105 101z"/>
<path style="fill:#7a6e77; stroke:none;" d="M73 106L73 110L78 110C76.4104 108.248 75.0463 107.206 73 106z"/>
<path style="fill:#8a838b; stroke:none;" d="M88 115C92.0481 113.01 93.904 109.914 96 106C92.3349 107.944 89.9533 111.364 88 115z"/>
<path style="fill:#968f96; stroke:none;" d="M91 108C85.8912 113.561 82.9663 113.95 76 115C80.2944 117.063 84.4 116.569 89 116L88 113C90.4438 111.675 91.6106 110.816 91 108z"/>
<path style="fill:#8f828b; stroke:none;" d="M73 110C75.6127 111.098 78.1645 110.993 81 111L80 115C83.6257 115.151 85.7699 113.434 89 112C84.0601 109.868 78.3172 109.694 73 110z"/>
<path style="fill:#807380; stroke:none;" d="M77 114C79.209 113.316 79.7034 112.92 81 111C78.8683 111.776 78.2292 112.13 77 114z"/>
<path style="fill:#9898a0; stroke:none;" d="M103 111L103 114L99 113C96.4952 117.354 93.2703 120.773 94 126C96.8611 124.207 98.0971 121.625 100.528 119.384C102.89 117.206 105.74 116.419 108 114C106.372 112.257 105.303 111.617 103 111z"/>
<path style="fill:#a69ca5; stroke:none;" d="M75 112L74 116L78 115L77 112L75 112z"/>
<path style="fill:#a1a1a9; stroke:none;" d="M88 121L92 120C87.9712 126.806 83.6825 134.461 78 140L78 136C74.7673 139.73 73.3471 145.277 72 150C82.1412 149.964 88.9937 139.786 92.5764 130.715C93.8064 127.6 93.4413 124.13 94.7554 121.039C96.1025 117.872 98.4226 115.076 100 112C94.6266 113.399 90.9411 116.317 88 121z"/>
<path style="fill:#5e575f; stroke:none;" d="M74 114L75 115L74 114z"/>
<path style="fill:#b0b1b5; stroke:none;" d="M89 117C80.8653 121.018 74.5086 124.239 71 133C73.868 131.57 75.6787 128.939 78.4637 127.482C83.1837 125.014 89.2558 123.946 89 117z"/>
<path style="fill:#878a93; stroke:none;" d="M80 150L84 150C88.6976 137.986 99.0269 128.749 104 117C97.706 118.937 94.8293 126.258 91.7446 131.576C88.0933 137.872 83.3001 143.499 80 150z"/>
<path style="fill:#9699a0; stroke:none;" d="M78 140C84.0889 136.047 89.2344 126.599 92 120C84.0111 122.148 79.0363 132.209 78 140z"/>
<path style="fill:#a8a9ad; stroke:none;" d="M55 129C49.7472 127.57 45.331 130.054 41 133L41 129C35.4562 133.06 31.6848 143.307 31 150L60 150C63.2749 150 68.5277 150.965 71.3619 148.972C75.9978 145.712 74.5981 138.994 80 136C80.5706 132.792 81.7722 130.011 83 127C77.0397 125.935 74.3395 130.581 70 134C70 135.797 70.0143 135.521 71 137C67.3497 138.833 64.8347 142.093 62 145C63.5092 137.781 67.3914 131.392 68 124C65.4053 124.912 63.3842 126.925 60.8349 127.762C58.4832 128.534 56.8648 127.339 55 129z"/>
<path style="fill:#a19fa4; stroke:none;" d="M98 130C96.4984 134.576 94.9979 140.406 90 142L89 145C87.9774 143.466 88.1954 143.598 87 143C86.4382 144.801 86.1759 146.122 86 148C87.6486 146.97 89.0323 146.506 91 146L90 150L94 150C94.18 142.345 98.3642 136.914 101 130L98 130z"/>
<path style="fill:#afafa7; stroke:none;" d="M28 136C26.9939 138.828 25.8423 143.372 23.4406 145.343C21.5215 146.919 19.2914 145.887 17.0895 146.004C13.9865 146.168 11.1874 147.791 8 148L8 150L27 150C27.2257 145.072 29.1747 140.796 30 136L28 136z"/>
<path style="fill:#97969c; stroke:none;" d="M93 136C92.1196 138.326 91.5072 140.564 91 143C93.2183 141.173 94.5449 139.486 96 137C94.5215 136.014 94.7968 136 93 136z"/>
<path style="fill:#a8a7ad; stroke:none;" d="M111 150L136 150C140.683 149.998 144.544 150.454 147 146L143 147L144 140C141.455 141.635 141.221 142.994 141 146L137 147C137.802 143.972 138.689 141.124 139 138C135.184 139.685 134.374 143.934 130.843 145.542C125.353 148.04 113.114 142.779 111 150z"/>
<path style="fill:#929398; stroke:none;" d="M149 143L145 150L150 150C149.981 147.457 149.985 145.332 149 143z"/>
<path style="fill:#96959b; stroke:none;" d="M87 148C85.5215 147.014 85.7968 147 84 147C85.0686 151.987 89.8938 149.943 91 146C87.7196 146.547 87.5774 145.113 87 148z"/>
</svg>
