<?xml version="1.0" encoding="iso-8859-1"?>
<!-- Generator: Adobe Illustrator 19.0.0, SVG Export Plug-In . SVG Version: 6.00 Build 0)  -->
<svg version="1.1" id="Layer_1" xmlns="http://www.w3.org/2000/svg" xmlns:xlink="http://www.w3.org/1999/xlink" x="0px" y="0px"
	 viewBox="0 0 512 512" style="enable-background:new 0 0 512 512;" xml:space="preserve">
<path style="fill:#FFFFFF;" d="M26.926,299.973h458.148c12.663,0,22.926,10.263,22.926,22.926v113.407
	c0,12.663-10.263,22.926-22.926,22.926H26.926C14.263,459.232,4,448.969,4,436.306V322.899C4,310.236,14.263,299.973,26.926,299.973
	z"/>
<path style="fill:#AAC1CE;" d="M485.074,304.012c10.447,0.016,18.91,8.479,18.927,18.927v113.367
	c-0.032,10.431-8.495,18.879-18.927,18.895H26.926c-10.431-0.016-18.895-8.463-18.927-18.903V322.899
	c0.032-10.431,8.495-18.871,18.927-18.887H485.074 M485.074,296.013H26.926c-14.855,0-26.902,12.031-26.926,26.886v113.407
	C0.016,451.161,12.071,463.2,26.926,463.2h458.148c14.871,0,26.926-12.055,26.926-26.926l0,0V322.899
	C511.976,308.036,499.929,296.005,485.074,296.013z"/>
<path style="fill:#E04F5F;" d="M51.484,337.682h91.553c6.32,0,11.447,5.128,11.447,11.447v60.947c0,6.32-5.128,11.447-11.447,11.447
	H51.484c-6.32,0-11.447-5.128-11.447-11.447v-60.947C40.037,342.801,45.164,337.682,51.484,337.682z"/>
<polygon style="fill:#FFFFFF;" points="83.393,357.704 121.327,379.606 83.393,401.509 "/>
<g>
	<path style="fill:#415E72;" d="M192.801,392.605c3.272,1.968,7.007,3.024,10.823,3.056c6.168,0,9.775-3.256,9.775-7.999
		c0-4.368-2.496-6.863-8.799-9.287c-7.623-2.704-12.343-6.655-12.343-13.239c0.368-7.423,6.679-13.143,14.103-12.775
		c0.344,0.016,0.68,0.048,1.016,0.088c3.584-0.12,7.135,0.664,10.327,2.288l-1.664,4.92c-2.728-1.464-5.776-2.232-8.871-2.216
		c-6.399,0-8.799,3.816-8.799,6.999c0,4.368,2.84,6.512,9.287,9.015c7.903,3.048,11.927,6.855,11.927,13.727
		c0,7.199-5.344,13.455-16.367,13.455c-4.168,0.048-8.271-0.976-11.919-2.984L192.801,392.605z"/>
	<path style="fill:#415E72;" d="M255.676,390.797c0,3.472,0.072,6.519,0.28,9.159h-5.408l-0.352-5.48h-0.144
		c-2.304,3.928-6.543,6.312-11.095,6.24c-5.264,0-11.575-2.912-11.575-14.703v-19.606h6.104v18.583
		c0,6.399,1.944,10.679,7.495,10.679c4.744,0.008,8.583-3.832,8.591-8.575c0-0.032,0-0.064,0-0.096v-20.59h6.104V390.797z"/>
	<path style="fill:#415E72;" d="M265.523,399.957c0.144-2.288,0.28-5.688,0.28-8.663v-40.565h6.032v21.078h0.144
		c2.36-4.032,6.775-6.407,11.439-6.168c8.303,0.416,14.695,7.487,14.279,15.791c-0.024,0.448-0.064,0.888-0.128,1.336
		c1.12,8.735-5.056,16.727-13.791,17.847c-0.408,0.056-0.816,0.088-1.232,0.112c-4.64,0.24-8.999-2.216-11.199-6.311h-0.208
		l-0.272,5.544L265.523,399.957L265.523,399.957z M271.835,386.502c0.032,0.752,0.136,1.496,0.312,2.224
		c1.04,4.208,4.816,7.159,9.151,7.143c6.4,0,10.191-5.192,10.191-12.887c0-6.727-3.472-12.487-9.983-12.487
		c-4.472,0.048-8.327,3.136-9.359,7.487c-0.2,0.816-0.312,1.656-0.344,2.496L271.835,386.502z"/>
	<path style="fill:#415E72;" d="M304.416,393.717c2.424,1.504,5.2,2.328,8.047,2.4c4.44,0,6.512-2.216,6.512-4.992
		c0-2.912-1.736-4.504-6.24-6.168c-6.032-2.152-8.871-5.48-8.871-9.495c0.24-5.712,5.072-10.143,10.783-9.903
		c0.264,0.008,0.528,0.032,0.792,0.064c2.888-0.024,5.728,0.688,8.255,2.08l-1.528,4.44c-2.064-1.264-4.432-1.936-6.855-1.936
		c-3.608,0-5.6,2.08-5.6,4.568c0,2.776,2.008,4,6.399,5.688c5.832,2.216,8.799,5.136,8.799,10.127
		c0,5.888-4.576,10.055-12.551,10.055c-3.288,0.056-6.536-0.728-9.431-2.288L304.416,393.717z"/>
	<path style="fill:#415E72;" d="M356.628,398.709c-3.032,1.352-6.319,2.016-9.639,1.944c-8.791,0.448-16.287-6.312-16.735-15.111
		c-0.032-0.672-0.024-1.344,0.024-2.016c-0.448-9.407,6.815-17.391,16.223-17.831c0.6-0.032,1.208-0.024,1.808,0.008
		c2.912-0.032,5.8,0.56,8.463,1.736l-1.392,4.712c-2.176-1.136-4.616-1.688-7.071-1.6c-6.975,0.464-12.247,6.495-11.783,13.471
		c0.416,6.247,5.336,11.247,11.575,11.767c2.592,0.008,5.152-0.56,7.495-1.672L356.628,398.709z"/>
	<path style="fill:#415E72;" d="M363.764,376.871c0-3.952-0.072-7.351-0.28-10.479h5.344l0.2,6.591h0.28
		c1.176-4.208,4.928-7.175,9.287-7.351c0.584-0.008,1.168,0.064,1.736,0.208v5.752c-0.68-0.144-1.384-0.216-2.08-0.2
		c-4.312,0.176-7.815,3.536-8.175,7.831c-0.176,0.936-0.264,1.888-0.28,2.84v17.887h-6.032V376.871z"/>
	<path style="fill:#415E72;" d="M393.505,356.968c-0.096,2.088-1.864,3.704-3.952,3.608c-1.952-0.088-3.52-1.656-3.608-3.608
		c-0.056-2.056,1.56-3.768,3.616-3.824c0.064,0,0.136,0,0.2,0c2-0.072,3.68,1.496,3.744,3.496
		C393.513,356.752,393.513,356.864,393.505,356.968z M386.706,399.957v-33.549h6.104v33.597L386.706,399.957z"/>
	<path style="fill:#415E72;" d="M402.649,399.957c0.144-2.288,0.28-5.688,0.28-8.663v-40.565h6.008v21.078h0.144
		c2.36-4.032,6.775-6.407,11.439-6.168c8.303,0.416,14.695,7.487,14.279,15.791c-0.024,0.448-0.064,0.888-0.128,1.336
		c1.12,8.735-5.056,16.727-13.791,17.847c-0.416,0.056-0.832,0.088-1.256,0.112c-4.64,0.24-8.999-2.216-11.199-6.311h-0.208
		l-0.272,5.544L402.649,399.957z M408.96,386.502c0.016,0.744,0.112,1.488,0.28,2.216c1.04,4.208,4.816,7.159,9.151,7.143
		c6.4,0,10.191-5.192,10.191-12.887c0-6.727-3.472-12.487-9.983-12.487c-4.448,0.08-8.271,3.168-9.295,7.495
		c-0.2,0.816-0.312,1.656-0.344,2.496V386.502z"/>
	<path style="fill:#415E72;" d="M445.781,384.286c-0.512,5.912,3.856,11.119,9.767,11.639c0.576,0.048,1.16,0.056,1.736,0.008
		c3.184,0.104,6.352-0.488,9.287-1.736l1.04,4.368c-3.528,1.48-7.335,2.192-11.159,2.088c-8.591,0.544-15.991-5.984-16.535-14.575
		c-0.048-0.784-0.04-1.568,0.032-2.344c-1.016-8.935,5.4-17.007,14.335-18.031c0.464-0.056,0.936-0.088,1.408-0.096
		c7.847,0.144,14.095,6.623,13.951,14.471c-0.008,0.448-0.04,0.888-0.088,1.336c-0.008,0.952-0.08,1.896-0.208,2.84L445.781,384.286
		z M463.66,379.91c0.68-4.752-2.624-9.151-7.375-9.823c-0.36-0.048-0.72-0.08-1.08-0.088c-5.216,0.392-9.271,4.688-9.359,9.911
		L463.66,379.91L463.66,379.91z"/>
</g>
<path style="fill:#E04F5F;" d="M26.926,48.8h458.148C499.945,48.8,512,60.855,512,75.726v113.407
	c0,14.871-12.055,26.926-26.926,26.926H26.926C12.055,216.059,0,203.996,0,189.133V75.718C0,60.855,12.055,48.8,26.926,48.8z"/>
<path style="fill:#FFFFFF;" d="M51.484,90.501h91.553c6.32,0,11.447,5.128,11.447,11.447v60.947c0,6.32-5.128,11.447-11.447,11.447
	H51.484c-6.32,0-11.447-5.128-11.447-11.447v-60.947C40.037,95.629,45.164,90.501,51.484,90.501z"/>
<polygon style="fill:#415E72;" points="83.393,110.515 121.327,132.418 83.393,154.32 "/>
<g>
	<path style="fill:#FFFFFF;" d="M192.801,145.417c3.272,1.968,7.007,3.024,10.823,3.056c6.168,0,9.775-3.256,9.775-7.999
		c0-4.368-2.496-6.863-8.799-9.287c-7.623-2.704-12.343-6.655-12.343-13.239c0.368-7.423,6.679-13.143,14.103-12.775
		c0.344,0.016,0.68,0.048,1.016,0.088c3.584-0.12,7.135,0.664,10.327,2.288l-1.664,4.92c-2.728-1.464-5.776-2.232-8.871-2.216
		c-6.399,0-8.799,3.816-8.799,6.999c0,4.368,2.84,6.511,9.287,9.015c7.903,3.048,11.927,6.855,11.927,13.727
		c0,7.199-5.344,13.455-16.367,13.455c-4.168,0.048-8.271-0.976-11.919-2.984L192.801,145.417z"/>
	<path style="fill:#FFFFFF;" d="M255.676,143.625c0,3.472,0.072,6.52,0.28,9.159h-5.408l-0.352-5.48h-0.144
		c-2.304,3.928-6.543,6.311-11.095,6.24c-5.264,0-11.575-2.912-11.575-14.703v-19.614h6.104v18.583
		c0,6.399,1.944,10.679,7.495,10.679c4.744,0.008,8.583-3.832,8.591-8.575c0-0.032,0-0.064,0-0.096v-20.59h6.104V143.625z"/>
	<path style="fill:#FFFFFF;" d="M265.523,152.768c0.144-2.288,0.28-5.688,0.28-8.663v-40.557h6.032v21.078h0.144
		c2.36-4.032,6.775-6.407,11.439-6.168c8.303,0.416,14.695,7.487,14.279,15.791c-0.024,0.448-0.064,0.888-0.128,1.336
		c1.112,8.735-5.064,16.727-13.799,17.839c-0.408,0.048-0.816,0.088-1.224,0.112c-4.64,0.24-8.999-2.216-11.199-6.312h-0.208
		l-0.272,5.544L265.523,152.768z M271.835,139.321c0.032,0.752,0.136,1.496,0.312,2.224c1.04,4.208,4.816,7.159,9.151,7.143
		c6.4,0,10.191-5.192,10.191-12.887c0-6.727-3.472-12.487-9.983-12.487c-4.472,0.048-8.327,3.136-9.359,7.487
		c-0.2,0.816-0.312,1.656-0.344,2.496L271.835,139.321z"/>
	<path style="fill:#FFFFFF;" d="M304.416,146.529c2.424,1.504,5.2,2.328,8.047,2.4c4.44,0,6.512-2.216,6.512-4.992
		c0-2.912-1.736-4.504-6.24-6.168c-6.032-2.152-8.871-5.48-8.871-9.495c0.24-5.712,5.072-10.143,10.783-9.903
		c0.264,0.008,0.528,0.032,0.792,0.064c2.888-0.024,5.728,0.688,8.255,2.08l-1.528,4.44c-2.064-1.264-4.432-1.936-6.855-1.936
		c-3.608,0-5.6,2.08-5.6,4.568c0,2.776,2.008,4,6.399,5.688c5.832,2.216,8.799,5.136,8.799,10.127
		c0,5.888-4.576,10.055-12.551,10.055c-3.288,0.056-6.536-0.728-9.431-2.288L304.416,146.529z"/>
	<path style="fill:#FFFFFF;" d="M356.628,151.52c-3.032,1.352-6.319,2.016-9.639,1.944c-8.791,0.448-16.287-6.312-16.735-15.111
		c-0.032-0.672-0.024-1.344,0.024-2.016c-0.448-9.407,6.815-17.391,16.223-17.831c0.6-0.032,1.208-0.024,1.808,0.008
		c2.912-0.032,5.8,0.56,8.463,1.736l-1.392,4.712c-2.176-1.136-4.616-1.688-7.071-1.6c-6.415-0.16-11.743,4.912-11.903,11.319
		c-0.008,0.456,0.008,0.912,0.048,1.368c-0.576,6.328,4.088,11.927,10.423,12.503c0.408,0.04,0.816,0.056,1.224,0.048
		c2.592,0.008,5.152-0.56,7.495-1.672L356.628,151.52z"/>
	<path style="fill:#FFFFFF;" d="M363.764,129.69c0-3.952-0.072-7.351-0.28-10.479h5.344l0.2,6.591h0.28
		c1.176-4.208,4.928-7.175,9.287-7.351c0.584-0.008,1.168,0.064,1.736,0.208v5.752c-0.68-0.144-1.384-0.216-2.08-0.2
		c-4.312,0.176-7.815,3.536-8.175,7.831c-0.176,0.936-0.264,1.888-0.28,2.84v17.887h-6.032V129.69z"/>
	<path style="fill:#FFFFFF;" d="M393.505,109.787c-0.096,2.088-1.864,3.704-3.952,3.608c-1.952-0.088-3.52-1.656-3.608-3.608
		c-0.056-2.056,1.56-3.768,3.616-3.824c0.064,0,0.136,0,0.2,0c2-0.072,3.68,1.496,3.744,3.496
		C393.513,109.571,393.513,109.683,393.505,109.787z M386.706,152.768v-33.549h6.104v33.597L386.706,152.768z"/>
	<path style="fill:#FFFFFF;" d="M402.649,152.768c0.144-2.288,0.28-5.688,0.28-8.663v-40.557h6.008v21.078h0.144
		c2.36-4.032,6.775-6.407,11.439-6.168c8.303,0.416,14.695,7.487,14.279,15.791c-0.024,0.448-0.064,0.888-0.128,1.336
		c1.12,8.735-5.056,16.727-13.791,17.847c-0.416,0.056-0.832,0.088-1.256,0.112c-4.64,0.24-8.999-2.216-11.199-6.312h-0.208
		l-0.272,5.552L402.649,152.768z M408.96,139.321c0.016,0.744,0.112,1.488,0.28,2.216c1.04,4.208,4.816,7.159,9.151,7.143
		c6.4,0,10.191-5.192,10.191-12.887c0-6.727-3.472-12.487-9.983-12.487c-4.448,0.08-8.271,3.168-9.295,7.495
		c-0.2,0.816-0.312,1.656-0.344,2.496V139.321z"/>
	<path style="fill:#FFFFFF;" d="M445.781,137.097c-0.512,5.912,3.856,11.119,9.767,11.639c0.576,0.048,1.16,0.056,1.736,0.008
		c3.184,0.104,6.352-0.488,9.287-1.736l1.04,4.368c-3.528,1.48-7.335,2.192-11.159,2.088c-8.591,0.544-15.991-5.984-16.535-14.575
		c-0.048-0.784-0.04-1.568,0.032-2.344c-1.016-8.935,5.4-17.007,14.335-18.031c0.464-0.056,0.936-0.088,1.408-0.096
		c7.847,0.144,14.095,6.623,13.951,14.471c-0.008,0.448-0.04,0.888-0.088,1.336c-0.008,0.952-0.08,1.896-0.208,2.84L445.781,137.097
		z M463.66,132.738c0.68-4.752-2.624-9.151-7.375-9.823c-0.36-0.048-0.72-0.08-1.08-0.088c-5.216,0.392-9.271,4.688-9.359,9.911
		H463.66z"/>
</g>
<g>
</g>
<g>
</g>
<g>
</g>
<g>
</g>
<g>
</g>
<g>
</g>
<g>
</g>
<g>
</g>
<g>
</g>
<g>
</g>
<g>
</g>
<g>
</g>
<g>
</g>
<g>
</g>
<g>
</g>
</svg>
